# xmcd
#
# Track frame offsets:
#	150
#	19534
#	33328
#	49863
#	65054
#	82575
#	104227
#	119306
#	134123
#	150456
#	165526
#
# Disc length: 2479 seconds
#
# Revision: 1
# Processed by: cddbd v1.5.1PL0 Copyright (c) Steve Scherf et al.
# Submitted via: EasyCDDAExtractor 6.5.0.1
#
DISCID=8d09ad0b
DTITLE=Sandra McCracken - Best Laid Plans
DYEAR=2004
DGENRE=Country
TTITLE0=Plenty
TTITLE1=Last Goodbye
TTITLE2=No More Tears
TTITLE3=Find You Out (What Matters)
TTITLE4=500 Miles
TTITLE5=Where Do You Go To My Lovely
TTITLE6=Took You For Granted
TTITLE7=Sons of Cain
TTITLE8=Letters
TTITLE9=Stay (Missing Evidence)
TTITLE10=Age After Age
EXTD=
EXTT0=
EXTT1=
EXTT2=
EXTT3=
EXTT4=
EXTT5=
EXTT6=
EXTT7=
EXTT8=
EXTT9=
EXTT10=
PLAYORDER=
